<?xml version="1.0" encoding="UTF-8"?>
<svg width="1600" height="900" viewBox="0 0 1600 900" fill="none" xmlns="http://www.w3.org/2000/svg">
  <defs>
    <linearGradient id="bg" x1="0" y1="0" x2="1" y2="1">
      <stop offset="0" stop-color="#0B0616"/>
      <stop offset="0.55" stop-color="#221840"/>
      <stop offset="1" stop-color="#0B0616"/>
    </linearGradient>

    <radialGradient id="orbA" cx="0" cy="0" r="1" gradientUnits="userSpaceOnUse" gradientTransform="translate(420 260) rotate(25) scale(640 520)">
      <stop stop-color="#A78BFA" stop-opacity="0.85"/>
      <stop offset="1" stop-color="#A78BFA" stop-opacity="0"/>
    </radialGradient>

    <radialGradient id="orbB" cx="0" cy="0" r="1" gradientUnits="userSpaceOnUse" gradientTransform="translate(1240 300) rotate(-20) scale(620 520)">
      <stop stop-color="#8B5CF6" stop-opacity="0.65"/>
      <stop offset="1" stop-color="#8B5CF6" stop-opacity="0"/>
    </radialGradient>

    <radialGradient id="orbC" cx="0" cy="0" r="1" gradientUnits="userSpaceOnUse" gradientTransform="translate(1120 160) rotate(0) scale(460 360)">
      <stop stop-color="#FBBF24" stop-opacity="0.45"/>
      <stop offset="1" stop-color="#FBBF24" stop-opacity="0"/>
    </radialGradient>

    <linearGradient id="glass" x1="0" y1="0" x2="1" y2="1">
      <stop offset="0" stop-color="#FFFFFF" stop-opacity="0.16"/>
      <stop offset="1" stop-color="#FFFFFF" stop-opacity="0.04"/>
    </linearGradient>

    <linearGradient id="soap1" x1="0" y1="0" x2="1" y2="1">
      <stop offset="0" stop-color="#F8F7FF"/>
      <stop offset="0.4" stop-color="#EDE9FE"/>
      <stop offset="1" stop-color="#DDD6FE"/>
    </linearGradient>

    <linearGradient id="soap2" x1="0" y1="0" x2="1" y2="1">
      <stop offset="0" stop-color="#FFF1F7"/>
      <stop offset="0.45" stop-color="#FDE2F1"/>
      <stop offset="1" stop-color="#F5D0FE"/>
    </linearGradient>

    <linearGradient id="soap3" x1="0" y1="0" x2="1" y2="1">
      <stop offset="0" stop-color="#F6F7FB"/>
      <stop offset="0.45" stop-color="#E7EAF3"/>
      <stop offset="1" stop-color="#D6DBE8"/>
    </linearGradient>

    <filter id="blurSoft" x="-20%" y="-20%" width="140%" height="140%" color-interpolation-filters="sRGB">
      <feGaussianBlur stdDeviation="18" result="b"/>
      <feColorMatrix in="b" type="matrix" values="1 0 0 0 0  0 1 0 0 0  0 0 1 0 0  0 0 0 0.85 0"/>
      <feMerge>
        <feMergeNode/>
        <feMergeNode in="SourceGraphic"/>
      </feMerge>
    </filter>

    <filter id="shadow" x="-30%" y="-30%" width="160%" height="160%" color-interpolation-filters="sRGB">
      <feDropShadow dx="0" dy="18" stdDeviation="26" flood-color="#000000" flood-opacity="0.45"/>
    </filter>
  </defs>

  <rect width="1600" height="900" fill="url(#bg)"/>

  <circle cx="420" cy="260" r="380" fill="url(#orbA)"/>
  <circle cx="1240" cy="300" r="380" fill="url(#orbB)"/>
  <circle cx="1120" cy="160" r="280" fill="url(#orbC)"/>

  <g opacity="0.14">
    <path d="M0 610C210 540 430 720 720 660C1010 600 1210 460 1600 540V900H0V610Z" fill="#FFFFFF"/>
    <path d="M0 420C250 350 480 500 780 460C1080 420 1240 300 1600 360V440C1260 380 1080 520 780 560C480 600 250 470 0 520V420Z" fill="#FFFFFF"/>
  </g>

  <g filter="url(#blurSoft)" opacity="0.85">
    <circle cx="210" cy="200" r="4" fill="#FFFFFF"/>
    <circle cx="260" cy="170" r="3" fill="#A78BFA"/>
    <circle cx="340" cy="220" r="2.5" fill="#FBBF24"/>
    <circle cx="1380" cy="210" r="4" fill="#FFFFFF"/>
    <circle cx="1320" cy="165" r="3" fill="#A78BFA"/>
    <circle cx="1250" cy="230" r="2.5" fill="#FBBF24"/>
  </g>

  <g filter="url(#shadow)">
    <rect x="960" y="220" width="520" height="440" rx="42" fill="url(#glass)" stroke="#FFFFFF" stroke-opacity="0.14"/>

    <g transform="translate(1002 270)">
      <rect x="0" y="0" width="420" height="120" rx="28" fill="url(#soap1)"/>
      <path d="M34 70C70 46 132 32 192 36C252 40 302 58 340 86" stroke="#6B46C1" stroke-opacity="0.16" stroke-width="10" stroke-linecap="round"/>
      <path d="M58 90C104 64 170 56 228 62C282 68 318 82 350 102" stroke="#8B5CF6" stroke-opacity="0.12" stroke-width="8" stroke-linecap="round"/>
    </g>

    <g transform="translate(1040 420)">
      <rect x="0" y="0" width="420" height="120" rx="28" fill="url(#soap2)"/>
      <path d="M36 68C88 42 160 38 232 46C298 54 340 74 368 96" stroke="#6B46C1" stroke-opacity="0.14" stroke-width="10" stroke-linecap="round"/>
      <path d="M70 92C126 72 190 66 250 70C306 74 334 86 360 104" stroke="#FBBF24" stroke-opacity="0.12" stroke-width="8" stroke-linecap="round"/>
    </g>

    <g transform="translate(1008 560)">
      <rect x="0" y="0" width="420" height="120" rx="28" fill="url(#soap3)"/>
      <path d="M36 70C90 48 166 44 242 52C308 60 348 78 376 96" stroke="#6B46C1" stroke-opacity="0.14" stroke-width="10" stroke-linecap="round"/>
      <path d="M78 94C132 76 196 72 256 76C310 80 338 90 362 106" stroke="#8B5CF6" stroke-opacity="0.10" stroke-width="8" stroke-linecap="round"/>
    </g>
  </g>
</svg>
