<?xml version="1.0" encoding="UTF-8"?>
<svg width="900" height="600" viewBox="0 0 900 600" fill="none" xmlns="http://www.w3.org/2000/svg">
  <defs>
    <linearGradient id="bg" x1="0" y1="0" x2="1" y2="1">
      <stop offset="0" stop-color="#0B0616"/>
      <stop offset="0.55" stop-color="#2A1036"/>
      <stop offset="1" stop-color="#0B0616"/>
    </linearGradient>
    <radialGradient id="orb1" cx="0" cy="0" r="1" gradientUnits="userSpaceOnUse" gradientTransform="translate(260 170) rotate(35) scale(360 280)">
      <stop stop-color="#8B5CF6" stop-opacity="0.75"/>
      <stop offset="1" stop-color="#8B5CF6" stop-opacity="0"/>
    </radialGradient>
    <radialGradient id="orb2" cx="0" cy="0" r="1" gradientUnits="userSpaceOnUse" gradientTransform="translate(690 210) rotate(-18) scale(330 270)">
      <stop stop-color="#A78BFA" stop-opacity="0.65"/>
      <stop offset="1" stop-color="#A78BFA" stop-opacity="0"/>
    </radialGradient>
    <radialGradient id="orb3" cx="0" cy="0" r="1" gradientUnits="userSpaceOnUse" gradientTransform="translate(640 120) rotate(0) scale(240 200)">
      <stop stop-color="#FBBF24" stop-opacity="0.35"/>
      <stop offset="1" stop-color="#FBBF24" stop-opacity="0"/>
    </radialGradient>
    <linearGradient id="soap" x1="0" y1="0" x2="1" y2="1">
      <stop offset="0" stop-color="#FFF1F7"/>
      <stop offset="0.35" stop-color="#FDE2F1"/>
      <stop offset="1" stop-color="#F5D0FE"/>
    </linearGradient>
    <linearGradient id="edge" x1="0" y1="0" x2="1" y2="0">
      <stop offset="0" stop-color="#A78BFA" stop-opacity="0.55"/>
      <stop offset="0.55" stop-color="#6B46C1" stop-opacity="0.25"/>
      <stop offset="1" stop-color="#0B0616" stop-opacity="0"/>
    </linearGradient>
    <filter id="soft" x="-20%" y="-20%" width="140%" height="140%" color-interpolation-filters="sRGB">
      <feGaussianBlur stdDeviation="8" result="blur"/>
      <feColorMatrix in="blur" type="matrix" values="1 0 0 0 0  0 1 0 0 0  0 0 1 0 0  0 0 0 0.8 0"/>
      <feMerge>
        <feMergeNode/>
        <feMergeNode in="SourceGraphic"/>
      </feMerge>
    </filter>
  </defs>

  <rect width="900" height="600" rx="42" fill="url(#bg)"/>
  <path d="M0 430C150 365 280 535 470 490C650 448 720 308 900 350V600H0V430Z" fill="#FFFFFF" fill-opacity="0.03"/>

  <circle cx="260" cy="170" r="210" fill="url(#orb1)"/>
  <circle cx="690" cy="210" r="205" fill="url(#orb2)"/>
  <circle cx="640" cy="120" r="160" fill="url(#orb3)"/>

  <g filter="url(#soft)">
    <path d="M246 394C246 330 298 278 362 278H594C658 278 710 330 710 394V404C710 468 658 520 594 520H362C298 520 246 468 246 404V394Z" fill="url(#soap)"/>
    <path d="M258 408C284 376 328 344 390 330C452 316 536 320 592 342C642 362 674 394 690 430" stroke="#6B46C1" stroke-opacity="0.18" stroke-width="12" stroke-linecap="round"/>
    <path d="M250 404V394C250 330 302 278 366 278H596" stroke="url(#edge)" stroke-width="10" stroke-linecap="round"/>
    <path d="M334 308C404 258 516 252 592 286" stroke="#FFFFFF" stroke-opacity="0.22" stroke-width="14" stroke-linecap="round"/>
  </g>

  <g opacity="0.85">
    <path d="M188 280C164 300 150 330 156 352C162 372 184 382 208 372C232 362 246 332 238 312C230 292 212 274 188 280Z" fill="#A78BFA" fill-opacity="0.16" stroke="#A78BFA" stroke-opacity="0.35"/>
    <path d="M176 340C170 322 182 302 202 296C222 290 242 304 246 324C250 344 236 366 214 370C192 374 182 358 176 340Z" fill="#8B5CF6" fill-opacity="0.12" stroke="#8B5CF6" stroke-opacity="0.32"/>
    <path d="M204 330C202 318 212 308 226 306C240 304 252 314 252 328C252 342 240 356 226 356C212 356 206 346 204 330Z" fill="#FBBF24" fill-opacity="0.10" stroke="#FBBF24" stroke-opacity="0.22"/>
  </g>

  <g opacity="0.55">
    <circle cx="742" cy="124" r="2" fill="#FBBF24"/>
    <circle cx="774" cy="150" r="1.6" fill="#A78BFA"/>
    <circle cx="712" cy="160" r="1.4" fill="#FFFFFF"/>
    <circle cx="152" cy="138" r="1.4" fill="#FFFFFF"/>
    <circle cx="126" cy="166" r="1.6" fill="#A78BFA"/>
    <circle cx="174" cy="192" r="1.2" fill="#FBBF24"/>
  </g>
</svg>
