<?xml version="1.0" encoding="UTF-8"?>
<svg width="900" height="600" viewBox="0 0 900 600" fill="none" xmlns="http://www.w3.org/2000/svg">
  <defs>
    <linearGradient id="bg" x1="0" y1="0" x2="1" y2="1">
      <stop offset="0" stop-color="#0B0616"/>
      <stop offset="0.6" stop-color="#1B1230"/>
      <stop offset="1" stop-color="#0B0616"/>
    </linearGradient>
    <radialGradient id="orb1" cx="0" cy="0" r="1" gradientUnits="userSpaceOnUse" gradientTransform="translate(260 170) rotate(35) scale(360 280)">
      <stop stop-color="#A78BFA" stop-opacity="0.7"/>
      <stop offset="1" stop-color="#A78BFA" stop-opacity="0"/>
    </radialGradient>
    <radialGradient id="orb2" cx="0" cy="0" r="1" gradientUnits="userSpaceOnUse" gradientTransform="translate(690 210) rotate(-18) scale(330 270)">
      <stop stop-color="#FBBF24" stop-opacity="0.32"/>
      <stop offset="1" stop-color="#FBBF24" stop-opacity="0"/>
    </radialGradient>
    <linearGradient id="table" x1="0" y1="0" x2="1" y2="0">
      <stop offset="0" stop-color="#1F1435"/>
      <stop offset="1" stop-color="#0F0A1E"/>
    </linearGradient>
    <linearGradient id="soap1" x1="0" y1="0" x2="1" y2="1">
      <stop offset="0" stop-color="#F8F7FF"/>
      <stop offset="0.4" stop-color="#EDE9FE"/>
      <stop offset="1" stop-color="#DDD6FE"/>
    </linearGradient>
    <linearGradient id="soap2" x1="0" y1="0" x2="1" y2="1">
      <stop offset="0" stop-color="#FFF7ED"/>
      <stop offset="0.5" stop-color="#FDE68A"/>
      <stop offset="1" stop-color="#FBBF24"/>
    </linearGradient>
    <filter id="soft" x="-20%" y="-20%" width="140%" height="140%" color-interpolation-filters="sRGB">
      <feGaussianBlur stdDeviation="10" result="blur"/>
      <feColorMatrix in="blur" type="matrix" values="1 0 0 0 0  0 1 0 0 0  0 0 1 0 0  0 0 0 0.75 0"/>
      <feMerge>
        <feMergeNode/>
        <feMergeNode in="SourceGraphic"/>
      </feMerge>
    </filter>
  </defs>

  <rect width="900" height="600" rx="42" fill="url(#bg)"/>
  <circle cx="260" cy="170" r="210" fill="url(#orb1)"/>
  <circle cx="690" cy="210" r="205" fill="url(#orb2)"/>

  <g opacity="0.16">
    <path d="M120 150C180 110 260 120 320 160C380 200 440 200 510 170C580 140 660 150 720 200" stroke="#FFFFFF" stroke-width="16" stroke-linecap="round"/>
    <path d="M100 250C170 210 260 220 330 260C400 300 470 300 550 268C630 236 720 246 790 298" stroke="#FFFFFF" stroke-width="14" stroke-linecap="round"/>
  </g>

  <g filter="url(#soft)">
    <path d="M110 390C110 360 134 336 164 336H736C766 336 790 360 790 390V490C790 520 766 544 736 544H164C134 544 110 520 110 490V390Z" fill="url(#table)"/>

    <path d="M220 280C220 250 244 226 274 226H410C440 226 464 250 464 280V318C464 348 440 372 410 372H274C244 372 220 348 220 318V280Z" fill="url(#soap1)"/>
    <path d="M498 260C498 232 520 210 548 210H690C718 210 740 232 740 260V312C740 340 718 362 690 362H548C520 362 498 340 498 312V260Z" fill="url(#soap2)"/>

    <path d="M240 470C280 432 338 410 400 410C470 410 534 438 574 486" stroke="#A78BFA" stroke-opacity="0.22" stroke-width="16" stroke-linecap="round"/>
    <path d="M326 468C352 450 386 438 424 438C470 438 512 456 540 484" stroke="#FBBF24" stroke-opacity="0.16" stroke-width="12" stroke-linecap="round"/>

    <path d="M232 248C260 232 302 228 332 242" stroke="#6B46C1" stroke-opacity="0.22" stroke-width="12" stroke-linecap="round"/>
    <path d="M512 234C548 214 612 210 654 228" stroke="#6B46C1" stroke-opacity="0.20" stroke-width="12" stroke-linecap="round"/>
  </g>

  <g opacity="0.55">
    <circle cx="742" cy="124" r="2" fill="#FBBF24"/>
    <circle cx="774" cy="150" r="1.6" fill="#A78BFA"/>
    <circle cx="712" cy="160" r="1.4" fill="#FFFFFF"/>
    <circle cx="152" cy="138" r="1.4" fill="#FFFFFF"/>
    <circle cx="126" cy="166" r="1.6" fill="#A78BFA"/>
    <circle cx="174" cy="192" r="1.2" fill="#FBBF24"/>
  </g>
</svg>
